<?xml version="1.0" standalone="no"?>
<!DOCTYPE svg PUBLIC "-//W3C//DTD SVG 20010904//EN"
 "http://www.w3.org/TR/2001/REC-SVG-20010904/DTD/svg10.dtd">
<svg version="1.0" xmlns="http://www.w3.org/2000/svg"
 width="69.000000pt" height="72.000000pt" viewBox="0 0 69.000000 72.000000"
 preserveAspectRatio="xMidYMid meet">

<g transform="translate(0.000000,72.000000) scale(0.100000,-0.100000)"
fill="#000000" stroke="none">
<path d="M211 565 c-100 -98 -114 -117 -105 -132 6 -10 19 -19 28 -21 15 -3
150 81 162 100 3 4 0 17 -6 28 -11 21 1 57 24 72 17 11 114 9 121 -2 4 -6 -13
-10 -44 -10 -65 0 -81 -7 -81 -35 0 -29 41 -60 115 -86 82 -29 119 -25 187 19
32 20 58 42 58 47 -1 17 -28 127 -34 132 -2 3 -17 -4 -33 -15 -28 -20 -29 -20
-128 -2 -55 11 -111 19 -124 20 -18 0 -55 -31 -140 -115z"/>
<path d="M264 414 c-32 -48 23 -134 86 -134 63 0 118 86 86 134 -14 22 -22 24
-86 24 -64 0 -72 -2 -86 -24z"/>
<path d="M480 265 c-84 -59 -84 -59 -71 -84 12 -22 1 -57 -23 -73 -17 -11
-114 -9 -121 2 -4 6 13 10 44 10 65 0 81 7 81 35 0 29 -41 60 -115 86 -82 29
-119 25 -187 -18 -32 -21 -58 -42 -58 -48 1 -17 28 -127 34 -132 2 -3 17 4 33
15 l28 20 109 -20 c60 -10 118 -17 130 -14 12 3 70 55 131 116 93 93 108 113
99 128 -19 29 -47 24 -114 -23z"/>
</g>
</svg>
