<?xml version="1.0" standalone="no"?>
<!DOCTYPE svg PUBLIC "-//W3C//DTD SVG 20010904//EN"
 "http://www.w3.org/TR/2001/REC-SVG-20010904/DTD/svg10.dtd">
<svg version="1.0" xmlns="http://www.w3.org/2000/svg"
 width="55.000000pt" height="52.000000pt" viewBox="0 0 55.000000 52.000000"
 preserveAspectRatio="xMidYMid meet">

<g transform="translate(0.000000,52.000000) scale(0.100000,-0.100000)"
fill="#000000" stroke="none">
<path d="M234 510 c-22 -8 -64 -56 -64 -71 0 -5 9 -13 21 -19 17 -10 24 -7 44
14 29 31 47 26 76 -21 l22 -36 -23 -17 c-13 -9 -20 -22 -17 -27 7 -11 116 -37
124 -30 2 3 9 25 14 49 5 24 12 51 15 61 4 12 0 17 -15 17 -11 0 -23 -4 -26
-10 -11 -18 -23 -10 -52 35 -16 27 -40 49 -57 55 -33 12 -34 12 -62 0z"/>
<path d="M91 366 c-52 -14 -61 -28 -30 -49 l22 -16 -32 -49 c-40 -63 -41 -104
-2 -143 24 -24 38 -29 75 -29 44 0 46 1 46 29 0 28 -3 30 -42 33 -54 4 -61 29
-23 87 24 36 29 39 51 29 13 -6 27 -8 30 -5 4 4 1 34 -6 67 -14 66 -14 66 -89
46z"/>
<path d="M437 256 c-17 -13 -17 -15 2 -47 30 -49 15 -69 -54 -69 -54 0 -55 0
-55 30 0 42 -18 38 -70 -15 l-44 -45 46 -46 c47 -48 68 -51 68 -8 0 23 3 24
59 24 49 0 65 4 90 26 37 31 42 81 11 132 -22 36 -27 37 -53 18z"/>
</g>
</svg>
